HIERARCHY
ROOT Hips
{
	OFFSET 0.000000 97.167313 0.000000
	CHANNELS 6 Xposition Yposition Zposition Xrotation Yrotation Zrotation
	JOINT Spine
	{
		OFFSET 0.000000 13.784798 0.064400
		CHANNELS 3 Xrotation Yrotation Zrotation
		JOINT Spine1
		{
			OFFSET 0.000000 12.037903 0.404700
			CHANNELS 3 Xrotation Yrotation Zrotation
			JOINT Spine2
			{
				OFFSET 0.000000 17.795601 0.420200
				CHANNELS 3 Xrotation Yrotation Zrotation
				JOINT Neck
				{
					OFFSET 0.000000 39.131302 11.954600
					CHANNELS 3 Xrotation Yrotation Zrotation
					JOINT Head
					{
						OFFSET 0.000000 14.456192 15.627699
						CHANNELS 3 Xrotation Yrotation Zrotation
						JOINT HeadTop_End
						{
							OFFSET 0.000000 15.703506 7.603401
							CHANNELS 3 Xrotation Yrotation Zrotation
							End Site
							{
								OFFSET 0.000000 17.447403 0.000000
							}
						}
					}
				}
				JOINT LeftShoulder
				{
					OFFSET 17.399500 24.608795 1.168800
					CHANNELS 3 Xrotation Yrotation Zrotation
					JOINT LeftArm
					{
						OFFSET 18.980635 5.765305 1.818600
						CHANNELS 3 Xrotation Yrotation Zrotation
						JOINT LeftForeArm
						{
							OFFSET 49.290169 0.000000 0.000000
							CHANNELS 3 Xrotation Yrotation Zrotation
							JOINT LeftHand
							{
								OFFSET 31.562012 0.000000 0.000000
								CHANNELS 3 Xrotation Yrotation Zrotation
								JOINT LeftHandThumb1
								{
									OFFSET 6.133995 -4.388519 7.076070
									CHANNELS 3 Xrotation Yrotation Zrotation
									JOINT LeftHandThumb2
									{
										OFFSET 6.037666 -3.485840 3.485847
										CHANNELS 3 Xrotation Yrotation Zrotation
										JOINT LeftHandThumb3
										{
											OFFSET 6.496506 -3.750763 3.750761
											CHANNELS 3 Xrotation Yrotation Zrotation
											JOINT LeftHandThumb4
											{
												OFFSET 5.616882 -3.242905 3.242910
												CHANNELS 3 Xrotation Yrotation Zrotation
												End Site
												{
													OFFSET -1.254608 7.132141 0.375429
												}
											}
										}
									}
								}
								JOINT LeftHandPinky1
								{
									OFFSET 18.920792 -0.453171 -11.426712
									CHANNELS 3 Xrotation Yrotation Zrotation
									JOINT LeftHandPinky2
									{
										OFFSET 4.919586 0.000000 0.000000
										CHANNELS 3 Xrotation Yrotation Zrotation
										JOINT LeftHandPinky3
										{
											OFFSET 5.233047 0.000000 0.000000
											CHANNELS 3 Xrotation Yrotation Zrotation
											JOINT LeftHandPinky4
											{
												OFFSET 5.571716 0.000000 0.000000
												CHANNELS 3 Xrotation Yrotation Zrotation
												End Site
												{
													OFFSET -3.459808 4.342407 -0.466164
												}
											}
										}
									}
								}
								JOINT LeftHandRing1
								{
									OFFSET 22.726120 -0.094986 -6.500475
									CHANNELS 3 Xrotation Yrotation Zrotation
									JOINT LeftHandRing2
									{
										OFFSET 6.408615 0.000000 0.000000
										CHANNELS 3 Xrotation Yrotation Zrotation
										JOINT LeftHandRing3
										{
											OFFSET 6.150223 0.000000 0.000000
											CHANNELS 3 Xrotation Yrotation Zrotation
											JOINT LeftHandRing4
											{
												OFFSET 6.145386 0.000000 0.000000
												CHANNELS 3 Xrotation Yrotation Zrotation
												End Site
												{
													OFFSET -3.671402 4.923981 -0.202372
												}
											}
										}
									}
								}
								JOINT LeftHandMiddle1
								{
									OFFSET 23.373947 0.000000 0.000001
									CHANNELS 3 Xrotation Yrotation Zrotation
									JOINT LeftHandMiddle2
									{
										OFFSET 6.996567 0.000000 0.000000
										CHANNELS 3 Xrotation Yrotation Zrotation
										JOINT LeftHandMiddle3
										{
											OFFSET 7.015945 0.000000 0.000000
											CHANNELS 3 Xrotation Yrotation Zrotation
											JOINT LeftHandMiddle4
											{
												OFFSET 7.721573 0.000000 0.000000
												CHANNELS 3 Xrotation Yrotation Zrotation
												End Site
												{
													OFFSET -4.651108 6.158463 0.251582
												}
											}
										}
									}
								}
								JOINT LeftHandIndex1
								{
									OFFSET 21.310577 -0.490082 6.209344
									CHANNELS 3 Xrotation Yrotation Zrotation
									JOINT LeftHandIndex2
									{
										OFFSET 7.536453 0.000000 0.000000
										CHANNELS 3 Xrotation Yrotation Zrotation
										JOINT LeftHandIndex3
										{
											OFFSET 7.512344 0.000000 0.000000
											CHANNELS 3 Xrotation Yrotation Zrotation
											JOINT LeftHandIndex4
											{
												OFFSET 10.212402 0.000000 0.000001
												CHANNELS 3 Xrotation Yrotation Zrotation
												End Site
												{
													OFFSET -5.180801 8.690506 1.388433
												}
											}
										}
									}
								}
							}
						}
					}
				}
				JOINT RightShoulder
				{
					OFFSET -17.399500 24.608795 1.168800
					CHANNELS 3 Xrotation Yrotation Zrotation
					JOINT RightArm
					{
						OFFSET -18.980635 5.765305 1.818600
						CHANNELS 3 Xrotation Yrotation Zrotation
						JOINT RightForeArm
						{
							OFFSET -49.290169 0.000000 0.000000
							CHANNELS 3 Xrotation Yrotation Zrotation
							JOINT RightHand
							{
								OFFSET -31.562012 0.000000 0.000000
								CHANNELS 3 Xrotation Yrotation Zrotation
								JOINT RightHandThumb1
								{
									OFFSET -6.133995 -4.388519 7.076070
									CHANNELS 3 Xrotation Yrotation Zrotation
									JOINT RightHandThumb2
									{
										OFFSET -6.037666 -3.485840 3.485847
										CHANNELS 3 Xrotation Yrotation Zrotation
										JOINT RightHandThumb3
										{
											OFFSET -6.496506 -3.750763 3.750761
											CHANNELS 3 Xrotation Yrotation Zrotation
											JOINT RightHandThumb4
											{
												OFFSET -5.616882 -3.242905 3.242910
												CHANNELS 3 Xrotation Yrotation Zrotation
												End Site
												{
													OFFSET 1.254608 7.132141 0.375429
												}
											}
										}
									}
								}
								JOINT RightHandIndex1
								{
									OFFSET -21.310577 -0.490082 6.209344
									CHANNELS 3 Xrotation Yrotation Zrotation
									JOINT RightHandIndex2
									{
										OFFSET -7.536453 0.000000 0.000000
										CHANNELS 3 Xrotation Yrotation Zrotation
										JOINT RightHandIndex3
										{
											OFFSET -7.512344 0.000000 0.000000
											CHANNELS 3 Xrotation Yrotation Zrotation
											JOINT RightHandIndex4
											{
												OFFSET -10.212402 0.000000 0.000001
												CHANNELS 3 Xrotation Yrotation Zrotation
												End Site
												{
													OFFSET 5.180801 8.690506 1.388433
												}
											}
										}
									}
								}
								JOINT RightHandMiddle1
								{
									OFFSET -23.373947 0.000000 0.000001
									CHANNELS 3 Xrotation Yrotation Zrotation
									JOINT RightHandMiddle2
									{
										OFFSET -6.996567 0.000000 0.000000
										CHANNELS 3 Xrotation Yrotation Zrotation
										JOINT RightHandMiddle3
										{
											OFFSET -7.015945 0.000000 0.000000
											CHANNELS 3 Xrotation Yrotation Zrotation
											JOINT RightHandMiddle4
											{
												OFFSET -7.721573 0.000000 0.000000
												CHANNELS 3 Xrotation Yrotation Zrotation
												End Site
												{
													OFFSET 4.651108 6.158463 0.251582
												}
											}
										}
									}
								}
								JOINT RightHandRing1
								{
									OFFSET -22.726120 -0.094986 -6.500475
									CHANNELS 3 Xrotation Yrotation Zrotation
									JOINT RightHandRing2
									{
										OFFSET -6.408615 0.000000 0.000000
										CHANNELS 3 Xrotation Yrotation Zrotation
										JOINT RightHandRing3
										{
											OFFSET -6.150223 0.000000 0.000000
											CHANNELS 3 Xrotation Yrotation Zrotation
											JOINT RightHandRing4
											{
												OFFSET -6.145386 0.000000 0.000000
												CHANNELS 3 Xrotation Yrotation Zrotation
												End Site
												{
													OFFSET 3.671402 4.923981 -0.202372
												}
											}
										}
									}
								}
								JOINT RightHandPinky1
								{
									OFFSET -18.920792 -0.453171 -11.426712
									CHANNELS 3 Xrotation Yrotation Zrotation
									JOINT RightHandPinky2
									{
										OFFSET -4.919586 0.000000 0.000000
										CHANNELS 3 Xrotation Yrotation Zrotation
										JOINT RightHandPinky3
										{
											OFFSET -5.233047 0.000000 0.000000
											CHANNELS 3 Xrotation Yrotation Zrotation
											JOINT RightHandPinky4
											{
												OFFSET -5.571716 0.000000 0.000000
												CHANNELS 3 Xrotation Yrotation Zrotation
												End Site
												{
													OFFSET 3.459808 4.342407 -0.466164
												}
											}
										}
									}
								}
							}
						}
					}
				}
			}
		}
	}
	JOINT LeftUpLeg
	{
		OFFSET 19.899099 -7.885101 -3.429500
		CHANNELS 3 Xrotation Yrotation Zrotation
		JOINT LeftLeg
		{
			OFFSET 1.745560 -36.997807 10.304700
			CHANNELS 3 Xrotation Yrotation Zrotation
			JOINT LeftFoot
			{
				OFFSET -1.745558 -29.803308 -13.615400
				CHANNELS 3 Xrotation Yrotation Zrotation
				JOINT LeftToeBase
				{
					OFFSET 1.181900 -18.539904 15.226099
					CHANNELS 3 Xrotation Yrotation Zrotation
					JOINT LeftToe_End
					{
						OFFSET -0.863701 1.402801 16.534700
						CHANNELS 3 Xrotation Yrotation Zrotation
						End Site
						{
							OFFSET 0.000000 16.616566 0.000000
						}
					}
				}
			}
		}
	}
	JOINT RightUpLeg
	{
		OFFSET -19.899099 -7.885101 -3.429500
		CHANNELS 3 Xrotation Yrotation Zrotation
		JOINT RightLeg
		{
			OFFSET -1.745560 -36.997807 10.304700
			CHANNELS 3 Xrotation Yrotation Zrotation
			JOINT RightFoot
			{
				OFFSET 1.745558 -29.803308 -13.615400
				CHANNELS 3 Xrotation Yrotation Zrotation
				JOINT RightToeBase
				{
					OFFSET -1.181900 -18.539904 15.226099
					CHANNELS 3 Xrotation Yrotation Zrotation
					JOINT RightToe_End
					{
						OFFSET 0.863701 1.402801 16.534700
						CHANNELS 3 Xrotation Yrotation Zrotation
						End Site
						{
							OFFSET 0.000000 16.616566 0.000000
						}
					}
				}
			}
		}
	}
}
MOTION
Frames: 4
Frame Time: 0.033333
4.619135 56.123482 7.193868 -6.532039 4.476602 3.203997 19.035367 -15.324580 -4.728878 23.533053 0.993517 -5.406180 23.862248 1.926608 -3.251879 -12.958945 0.497214 6.040341 -29.185391 5.860112 3.737795 -0.000001 0.000000 0.000000 12.869167 -3.031187 24.786068 -110.942209 -11.594758 -77.290885 -99.457192 14.180074 -55.751621 -18.797659 22.484599 16.334853 0.699129 9.503395 -2.418094 5.975212 12.647559 1.348319 -23.873558 -17.664257 1.604907 -0.000000 0.000002 0.000001 -7.938273 1.609079 -6.495684 2.210537 4.583579 -51.475263 0.883819 3.096044 -31.858120 0.000000 -0.000002 -0.000004 1.254207 -0.073805 -17.945800 3.754126 5.463604 -68.965308 5.298524 9.638306 -33.747227 0.000000 0.000002 0.000003 10.058171 -1.800607 -20.644727 1.774277 4.200442 -45.782017 1.632184 4.057816 -43.809448 -0.000001 -0.000002 0.000001 9.479712 -1.289830 -20.785557 0.709520 2.796405 -28.466972 0.714017 2.804750 -28.559727 -0.000002 -0.000002 -0.000002 19.871988 -0.898824 12.976290 -70.345956 44.582714 70.172257 51.416602 111.068698 -47.917421 -3.174196 22.018500 -31.793769 13.942463 -4.273734 -5.300355 7.113087 -20.767602 -2.619659 -3.463348 -24.899677 -18.660386 -0.000001 0.000000 0.000001 0.357773 -5.832722 5.175942 0.094392 -0.933727 11.539915 0.777601 -2.578475 33.559940 -0.000001 -0.000003 0.000001 3.764153 -12.080543 1.143858 5.714304 -4.535835 103.133493 3.160508 -4.410647 71.234884 0.000001 0.000000 -0.000004 -12.155579 -12.623914 9.228368 6.566898 -4.248338 114.232312 3.755118 -4.569167 78.819768 -0.000001 0.000001 -0.000005 -17.635728 -10.496828 3.325389 4.993696 -4.645011 94.147922 3.647333 -4.546532 77.463423 0.000001 -0.000001 0.000004 -44.285956 18.784212 27.629369 108.342537 -2.984262 -0.493549 -18.862860 2.380805 6.036571 -33.428045 8.775339 -10.740773 -0.000000 0.000000 -0.000000 -64.723173 6.867285 9.837452 95.201506 -1.961102 -0.265840 -22.022705 -8.104974 1.982668 -3.583287 0.272052 0.423869 0.000000 -0.000000 0.000000 
-0.973793 54.998657 1.565891 -6.185260 6.002277 2.149665 18.592086 -16.167386 -3.398613 24.016856 1.059601 -5.233553 24.404425 1.717285 -3.020219 -12.984999 0.381219 6.023928 -29.607958 6.178970 3.717067 -0.000001 -0.000000 -0.000000 12.634309 -3.735577 23.998182 -111.117520 -12.236898 -76.147218 -98.879699 16.935778 -55.149451 -16.990239 21.229790 15.406878 0.699130 9.503394 -2.418094 5.975210 12.647559 1.348318 -23.873558 -17.664261 1.604908 0.000001 0.000002 -0.000002 -7.938278 1.609078 -6.495682 2.210542 4.583582 -51.475263 0.883818 3.096046 -31.858120 0.000002 -0.000004 -0.000001 1.254207 -0.073807 -17.945800 3.754126 5.463600 -68.965308 5.298517 9.638308 -33.747234 0.000001 0.000002 0.000000 10.058172 -1.800602 -20.644727 1.774276 4.200439 -45.782017 1.632181 4.057819 -43.809448 0.000001 -0.000001 0.000004 9.479713 -1.289832 -20.785557 0.709521 2.796406 -28.466968 0.714011 2.804750 -28.559722 -0.000000 0.000001 -0.000001 20.033896 -1.809797 13.302634 -71.029828 44.485258 70.623138 55.333002 112.001804 -51.288778 -2.067176 22.967112 -31.221024 13.942459 -4.273732 -5.300355 7.113089 -20.767600 -2.619660 -3.463352 -24.899671 -18.660384 0.000000 0.000003 -0.000001 0.357774 -5.832724 5.175940 0.094392 -0.933734 11.539911 0.777602 -2.578476 33.559943 -0.000000 0.000000 -0.000001 3.764148 -12.080541 1.143857 5.714307 -4.535835 103.133493 3.160507 -4.410647 71.234884 0.000001 0.000000 -0.000004 -12.155578 -12.623916 9.228368 6.566901 -4.248338 114.232312 3.755118 -4.569168 78.819768 0.000000 0.000002 -0.000003 -17.635731 -10.496828 3.325388 4.993698 -4.645014 94.147935 3.647335 -4.546527 77.463423 -0.000002 -0.000002 0.000002 -26.899078 26.683152 18.392998 107.127276 -2.457177 -0.328397 -29.014852 -0.637400 5.289550 -49.018683 6.896966 -3.573945 0.000000 -0.000001 0.000000 -73.684607 -0.491326 14.844970 89.068781 -7.853789 -2.113129 -7.020209 -6.870387 -0.994607 -3.583256 0.272054 0.423875 0.000000 0.000000 -0.000000 
-6.759855 53.925232 -3.755368 -5.783347 7.985781 1.013309 18.410394 -17.267159 -1.668244 24.293077 1.048076 -5.136729 24.677170 1.601719 -2.888012 -12.973240 0.297650 6.016569 -29.845256 6.151887 3.633525 -0.000001 0.000000 -0.000000 12.555306 -4.288125 24.320309 -110.748464 -12.234618 -76.502941 -98.826116 16.058381 -55.590196 -17.103676 21.220930 15.390407 0.699129 9.503395 -2.418095 5.975210 12.647559 1.348319 -23.873562 -17.664257 1.604909 0.000001 0.000002 -0.000001 -7.938276 1.609076 -6.495685 2.210535 4.583584 -51.475260 0.883815 3.096049 -31.858123 0.000003 -0.000000 -0.000000 1.254211 -0.073809 -17.945803 3.754126 5.463607 -68.965308 5.298520 9.638304 -33.747230 0.000001 0.000001 0.000007 10.058173 -1.800608 -20.644730 1.774276 4.200443 -45.782017 1.632180 4.057821 -43.809445 -0.000001 -0.000002 0.000004 9.479718 -1.289832 -20.785558 0.709522 2.796403 -28.466972 0.714009 2.804749 -28.559722 -0.000002 -0.000000 0.000001 20.227687 -2.812425 13.675577 -70.998505 44.711634 71.171118 53.082717 110.772848 -49.652972 -3.636969 23.785862 -30.349966 13.942462 -4.273731 -5.300355 7.113089 -20.767603 -2.619660 -3.463350 -24.899673 -18.660388 -0.000002 -0.000001 0.000002 0.357773 -5.832722 5.175944 0.094393 -0.933730 11.539913 0.777602 -2.578476 33.559950 -0.000000 0.000000 -0.000001 3.764150 -12.080543 1.143856 5.714306 -4.535834 103.133493 3.160508 -4.410646 71.234884 0.000001 -0.000000 -0.000001 -12.155577 -12.623914 9.228368 6.566902 -4.248338 114.232312 3.755118 -4.569166 78.819768 0.000001 -0.000000 -0.000005 -17.635728 -10.496829 3.325388 4.993689 -4.645011 94.147922 3.647333 -4.546532 77.463423 0.000002 -0.000001 0.000000 -8.820338 34.303143 5.631679 102.619105 -0.015673 1.511773 -35.361426 -4.717103 7.944445 -59.597663 3.207029 2.019475 -0.000000 -0.000002 -0.000000 -78.712370 -6.044196 18.101057 80.396203 -12.705689 -3.572759 5.822867 -6.260292 -5.078183 -3.583268 0.272047 0.423875 -0.000000 -0.000000 -0.000000 
-12.466208 53.459885 -8.853651 -5.317910 10.111813 -0.158783 18.274465 -18.516291 0.082098 24.514871 0.861244 -4.977257 24.855948 1.459038 -2.701667 -12.961256 0.302890 6.031163 -29.999755 6.167867 3.571240 0.000001 0.000000 -0.000000 12.399386 -4.943867 24.096665 -110.359642 -12.647749 -76.266944 -98.717776 16.230807 -55.652122 -16.784836 20.868519 15.185437 0.699128 9.503398 -2.418094 5.975211 12.647559 1.348318 -23.873560 -17.664259 1.604908 -0.000002 0.000001 -0.000001 -7.938274 1.609080 -6.495680 2.210535 4.583585 -51.475260 0.883816 3.096051 -31.858116 -0.000000 0.000001 -0.000000 1.254211 -0.073810 -17.945803 3.754124 5.463609 -68.965308 5.298524 9.638307 -33.747227 0.000002 0.000001 0.000005 10.058172 -1.800604 -20.644728 1.774277 4.200441 -45.782017 1.632181 4.057819 -43.809451 0.000002 0.000000 0.000009 9.479713 -1.289829 -20.785557 0.709520 2.796404 -28.466968 0.714014 2.804745 -28.559727 0.000001 0.000001 0.000002 20.453852 -3.844185 14.067349 -71.701202 44.533820 71.890159 58.763177 112.316184 -54.487141 -1.752200 24.712350 -29.848640 13.942459 -4.273733 -5.300355 7.113091 -20.767600 -2.619657 -3.463353 -24.899675 -18.660382 0.000001 0.000001 0.000002 0.357770 -5.832716 5.175941 0.094394 -0.933727 11.539914 0.777601 -2.578474 33.559947 -0.000000 -0.000001 -0.000001 3.764148 -12.080542 1.143856 5.714308 -4.535834 103.133493 3.160507 -4.410647 71.234884 0.000002 -0.000000 -0.000001 -12.155580 -12.623913 9.228368 6.566899 -4.248339 114.232305 3.755119 -4.569167 78.819768 -0.000000 0.000001 -0.000005 -17.635731 -10.496828 3.325391 4.993696 -4.645010 94.147929 3.647333 -4.546535 77.463429 -0.000000 -0.000001 0.000000 12.065078 39.285708 -9.381381 94.443471 3.546593 4.209598 -42.969536 -10.850227 13.787230 -59.729594 6.508274 4.955873 0.000001 -0.000001 -0.000000 -80.287767 -9.113023 20.312271 69.328387 -16.181487 -4.623917 16.751797 -6.591032 -9.384765 -3.583285 0.272051 0.423867 -0.000000 0.000000 -0.000000 
